<svg width="301" height="290" viewBox="0 0 301 290" fill="none" xmlns="http://www.w3.org/2000/svg">
<path d="M36.2939 18.5986C120.105 1.81774 175.788 -0.764272 261.468 18.3994C267.797 19.8152 272.931 24.5144 274.892 30.6885C288.673 74.0977 295.61 110.285 295.685 146.158C295.759 182.022 288.975 217.851 274.979 260.537C272.986 266.617 267.904 271.217 261.66 272.592C185.747 289.305 129.433 287.191 37.4004 272.121C30.1458 270.933 24.2406 265.584 22.4092 258.517C-0.346347 170.701 -1.1988 112.006 22.2441 31.3994C24.1384 24.8866 29.5776 19.9434 36.2939 18.5986Z" fill="#F8AD9D" stroke="#F08080" stroke-width="10"/>
<path d="M248.238 41.7988C256.238 61.2988 262.238 77.7988 264.238 95.7988" stroke="white" stroke-opacity="0.82" stroke-width="14" stroke-linecap="round" stroke-linejoin="round"/>
</svg>
