<svg width="294" height="276" viewBox="0 0 294 276" fill="none" xmlns="http://www.w3.org/2000/svg">
<path d="M36.2207 16.7695C121.348 1.64689 173.86 0.556018 256.26 16.6572C262.873 17.9495 268.276 22.7812 270.26 29.1914C282.688 69.3464 288.804 102.194 288.786 135.916C288.768 169.664 282.608 204.569 270.143 248.848C268.203 255.736 262.416 260.896 255.36 262.022C179.634 274.113 126.67 272.75 37.2256 261.566C29.6663 260.621 23.414 255.183 21.5107 247.87C10.5169 205.63 5.01886 171.606 5 138.011C4.98114 104.425 10.4388 71.0242 21.6191 30.0381C23.4851 23.1984 29.1956 18.0175 36.2207 16.7695Z" fill="#F8AD9D" stroke="#F08080" stroke-width="10"/>
<path d="M247 38C255 57.5 257 70 259 88" stroke="white" stroke-opacity="0.82" stroke-width="14" stroke-linecap="round" stroke-linejoin="round"/>
</svg>
