<svg width="340" height="330" viewBox="0 0 340 330" fill="none" xmlns="http://www.w3.org/2000/svg">
<path d="M169.49 5.01074C207.644 4.63626 246.148 14.0694 291.726 34.7207C295.28 36.3313 298.241 39.0807 300.091 42.499C322.894 84.6277 334.243 122.105 334.311 160.993C334.378 199.93 323.137 240.761 299.954 289.593C298.108 293.481 294.929 296.596 291.027 298.32C250.3 316.314 214.053 324.623 176.077 324.298C138.031 323.972 97.9415 314.98 49.5166 297.931C44.93 296.316 41.1659 292.935 39.0947 288.559C16.4186 240.641 5.06858 200.152 5 161.304C4.93154 122.512 16.1124 84.8878 39.2852 42.6953C41.2057 39.1984 44.2911 36.4191 47.9902 34.8389C93.0625 15.5852 131.307 5.38553 169.49 5.01074Z" fill="#F8AD9D" stroke="#F08080" stroke-width="10"/>
<path d="M267.492 56.6602C285.492 77.1602 293.492 102.66 295.492 120.66" stroke="white" stroke-opacity="0.82" stroke-width="12" stroke-linecap="round" stroke-linejoin="round"/>
</svg>
