<svg width="320" height="310" viewBox="0 0 320 310" fill="none" xmlns="http://www.w3.org/2000/svg">
<path d="M159.702 5.01172C195.511 4.65778 231.483 12.2161 275.681 28.9795C280.136 30.6695 283.743 34.0519 285.706 38.3848C304.9 80.7537 314.465 116.49 314.535 153.093C314.605 189.724 305.167 227.658 285.664 274.42C283.697 279.136 279.824 282.807 275.021 284.499C235.086 298.562 201.034 304.943 165.322 304.608C129.544 304.273 91.8448 297.197 44.5791 284.025C39.1154 282.503 34.6442 278.548 32.5137 273.333C14.2539 228.636 5.06998 191.607 5 155.113C4.93007 118.64 13.9638 82.2957 32.7568 38.9736C34.7689 34.3354 38.6621 30.7439 43.4697 29.0723C87.8241 13.6503 123.858 5.36605 159.702 5.01172Z" fill="#F8AD9D" stroke="#F08080" stroke-width="10"/>
<path d="M258 49C270 69.5 278 91 280 109" stroke="white" stroke-opacity="0.82" stroke-width="14" stroke-linecap="round" stroke-linejoin="round"/>
</svg>
