<svg width="279" height="269" viewBox="0 0 279 269" fill="none" xmlns="http://www.w3.org/2000/svg">
<path d="M30.2627 11.8828C113.962 3.2583 166.153 2.22045 244.879 11.7363C252.592 12.6687 258.899 18.312 260.628 25.8438C278.235 102.543 278.099 154.005 260.204 241.667C258.638 249.337 252.417 255.2 244.693 256.272C170.305 266.6 117.695 265.313 30.4971 255.891C21.9798 254.97 15.1702 248.406 13.9766 239.955C2.22483 156.751 1.87107 104.914 13.7471 27.5195C15.0271 19.1775 21.82 12.7528 30.2627 11.8828Z" fill="#F8AD9D" stroke="#F08080" stroke-width="10"/>
<path d="M237.883 32.3281C241.883 51.3281 243.883 60.3281 245.883 78.3281" stroke="white" stroke-opacity="0.82" stroke-width="14" stroke-linecap="round" stroke-linejoin="round"/>
</svg>
