<svg width="376" height="378" viewBox="0 0 376 378" fill="none" xmlns="http://www.w3.org/2000/svg">
<path d="M33.457 122.89C35.4966 114.589 35.8683 98.7389 32.541 94.4626C25.5574 85.4869 11.3919 79.6642 6.48782 69.711C1.44925 59.4849 6.72521 26.7901 13.894 23.2773C21.0628 19.7646 28.7773 18.954 40.7773 18.954C52.7773 18.954 65.3527 28.1277 71.8538 34.3375C79.092 41.2514 92.3995 55.4164 104.169 47.0868C113.668 40.3641 127.749 20.8559 142.049 25.4522C148.662 27.5775 168.722 42.8576 176.258 34.7019C184.702 25.5631 204.608 2.66895 219.772 18.954C227.772 27.546 231.772 43.7025 243.682 47.4831C276.205 57.8069 310.633 -13.9669 344.373 6.04073C356.873 13.453 332.765 48.8037 327.265 53.303C321.583 57.9515 312.82 62.2749 311.24 66.9847C309.307 72.7473 309.72 80.9351 313.985 90.6049C316.481 96.2624 346.722 112.332 337.375 115.632C332.702 117.282 324.77 117.217 323.969 122.003C323.526 124.645 328.909 132.647 329.099 139.277C329.429 150.805 326.035 157.149 329.099 163.2C332.438 169.794 353.365 188.217 339.745 195.952C335.425 198.405 321.314 198.283 318.825 202.759C313.421 212.475 319.215 222.531 326.251 222.874C341.965 223.639 361.152 234.095 368.576 248.187C376.2 262.658 374.345 321.293 351.361 323.959C343.348 324.889 331.117 319.97 324.295 323.813C314.802 329.16 315.019 356.094 297.681 344.317C292.501 340.799 280.948 317.555 272.591 327.902C266.842 335.019 280.568 373.448 272.809 372.685C265.442 371.961 257.178 368.338 253.248 364.461C245.823 357.134 233.23 347.337 223.824 357.768C219.261 362.828 217.121 369.885 212.796 372.951C205.045 378.446 188.688 373.851 182.098 368.441C177.239 364.452 175.284 354.92 164.878 352.327C156.098 350.139 138.846 351.126 133.449 357.252C129.517 361.714 127.202 367.424 121.253 370.562C108.066 377.518 90.9883 370.543 84.1496 358.413C81.3885 353.516 63.3472 323.917 53.8724 337.913C46.9768 348.1 41.4523 366.369 33.8731 369.602C29.3124 371.547 14.5796 376.613 9.00349 369.801C-1.09667 357.461 1.80585 329.099 9.29881 315.616C12.5633 309.741 19.6534 307.557 21.9127 301.58C25.9393 290.926 33.6984 264.851 27.7151 264.116C22.7928 263.512 9.48864 264.752 13.894 255.197C17.132 248.174 34.4073 233.97 24.454 225.27C22.4045 223.478 14.0662 224.562 7.99687 221.895C-2.60746 217.236 11.9791 194.113 17.6592 190.411C25.7924 185.111 36.5854 178.96 38.0515 173.085C39.6965 166.492 40.345 157.155 36.0654 152.086C34.2393 149.924 27.5521 152.248 25.3021 148.037C19.7993 137.738 31.3002 131.669 33.457 122.89Z" fill="#F8AD9D" stroke="#F08080" stroke-width="5" stroke-linecap="round"/>
<path d="M298.285 55.3481C298.166 55.1335 297.97 54.9701 297.735 54.8963C297.5 54.8224 297.246 54.8437 297.028 54.9559C296.81 55.0681 296.646 55.2625 296.569 55.4967C296.493 55.731 296.512 55.9855 296.618 56.2066C296.618 56.2066 296.618 56.2066 296.618 56.2066C296.515 55.9823 296.56 55.9618 296.545 55.9877C296.539 56.0123 296.521 56.0825 296.495 56.1539C296.442 56.3059 296.365 56.4823 296.277 56.6658C296.101 57.0294 295.893 57.4059 295.673 57.7901C295.242 58.541 294.772 59.3077 294.306 60.0731C293.37 61.6053 292.43 63.1513 291.534 64.7376C290.038 67.3898 288.649 70.136 287.581 73.0727C284.714 80.8238 284.05 89.7469 286.745 97.8594C289.349 105.054 296.418 106.981 301.356 109.599C303.251 110.512 304.564 111.625 305.137 113.183C305.868 115.076 305.728 117.616 305.172 120.064C303.786 126.559 297.59 133.691 297.687 142.429C297.493 145.434 298.579 148.546 300.123 150.844C302.13 153.919 304.697 156.177 305.822 158.396C307.973 162.78 305.151 169.533 302.179 174.99C298.572 181.031 290.926 184.938 286.608 193.556C285.834 195.907 284.464 198.442 284.246 201.697C284.024 204.98 285.448 207.988 287.054 210.298C291.286 216.676 300.63 216.492 296.203 222.56C294.38 225.316 295.267 229.489 297.098 231.657C299.348 234.725 302.004 237.063 303.393 240.14C303.494 240.363 303.677 240.541 303.905 240.633C304.134 240.725 304.389 240.724 304.615 240.629C304.841 240.535 305.02 240.354 305.115 240.126C305.209 239.899 305.21 239.644 305.122 239.415C305.122 239.415 305.122 239.415 305.122 239.415C303.718 235.796 300.961 233.097 299.144 230.275C297.691 228.093 297.396 225.987 298.7 223.995C299.552 222.508 300.488 220.902 300.314 218.601C300.068 216.185 298.152 214.722 296.837 213.811C294.026 211.968 291.525 210.537 290.129 208.256C287.097 203.96 288.208 200.276 290.575 194.998C293.583 189.099 301.336 184.919 306.336 177.314C309.388 171.4 313.678 164.513 310.261 156.151C308.345 152.583 305.815 150.53 304.318 148.123C303.155 146.346 302.574 144.58 302.667 142.66C302.487 135.273 307.751 129.782 309.811 121.067C310.399 118.106 310.717 114.82 309.396 111.474C308.278 108.569 305.57 106.603 303.231 105.589C297.926 103.132 292.02 101.109 290.439 96.5979C287.797 89.4636 288.003 81.43 290.346 74.0039C291.202 71.2473 292.394 68.5495 293.714 65.8963C294.505 64.3076 295.345 62.7407 296.197 61.1566C296.622 60.3638 297.053 59.5649 297.462 58.7475C297.672 58.3272 297.874 57.9112 298.062 57.4566C298.157 57.2233 298.246 56.9932 298.327 56.7088C298.365 56.5715 298.404 56.4096 298.425 56.224C298.437 56.0234 298.485 55.7659 298.285 55.3481Z" fill="white" fill-opacity="0.8"/>
</svg>
