<svg width="349" height="342" viewBox="0 0 349 342" fill="none" xmlns="http://www.w3.org/2000/svg">
<path d="M174.294 5.01562C212.698 4.53536 251.347 15.4707 297.155 39.6719C300.019 41.1849 302.466 43.4924 304.14 46.2607C330.618 90.06 343.843 128.387 343.991 167.538C344.139 206.721 331.191 247.349 304.172 295.742C302.44 298.844 299.783 301.41 296.628 303.021C251.181 326.219 212.673 336.771 174.436 336.37C136.158 335.969 97.6635 324.589 52.2324 303.101C48.6688 301.415 45.7145 298.571 43.8896 295.072C18.1735 245.763 5.18646 204.436 5.00195 165.191C4.81791 126.036 17.3782 88.3877 43.8008 46.4209C45.5649 43.619 48.1398 41.3221 51.1436 39.8564C97.1164 17.4251 135.842 5.49657 174.294 5.01562Z" fill="#F8AD9D" stroke="#F08080" stroke-width="10"/>
<path d="M269 61C290 87 301 113 303 131" stroke="white" stroke-opacity="0.82" stroke-width="10" stroke-linecap="round" stroke-linejoin="round"/>
</svg>
